<svg width="256" height="256" viewBox="0 0 256 256" xmlns="http://www.w3.org/2000/svg">
  <defs>
    <linearGradient id="bg" x1="24" y1="24" x2="231" y2="232" gradientUnits="userSpaceOnUse">
      <stop stop-color="#242A36"/>
      <stop offset="1" stop-color="#0D1118"/>
    </linearGradient>
    <linearGradient id="bar" x1="64" y1="178" x2="192" y2="62" gradientUnits="userSpaceOnUse">
      <stop stop-color="#18C7A7"/>
      <stop offset="1" stop-color="#426DFF"/>
    </linearGradient>
  </defs>
  <rect x="20" y="20" width="216" height="216" rx="46" fill="url(#bg)"/>
  <rect x="57" y="111" width="20" height="68" rx="10" fill="url(#bar)"/>
  <rect x="91" y="76" width="20" height="103" rx="10" fill="url(#bar)"/>
  <rect x="125" y="96" width="20" height="83" rx="10" fill="url(#bar)"/>
  <rect x="159" y="57" width="20" height="122" rx="10" fill="url(#bar)"/>
  <path d="M184 69v97c0 15.5-12.8 28-28.5 28-12.4 0-22.5-7.3-22.5-16.4s10.1-16.4 22.5-16.4c5.4 0 10.4 1.4 14.3 3.8V84z" fill="#FFFFFF"/>
</svg>
