<svg viewBox="68 68 888 888" xmlns="http://www.w3.org/2000/svg" aria-hidden="true" focusable="false">
  <path fill="currentColor" stroke="currentColor" stroke-width="18" stroke-linejoin="round" stroke-linecap="round" paint-order="stroke fill" d="M503.893333 936.746667l-358.4-204.16c-5.333333-2.986667-8.533333-8.746667-8.746666-14.72L136.533333 308.906667c0-6.186667 3.2-11.733333 8.533334-14.72l357.76-204.8c5.333333-2.986667 11.946667-2.986667 17.28 0l358.186666 204.16c5.333333 2.986667 8.533333 8.746667 8.746667 14.72l0.426667 408.96c0 6.186667-3.2 11.733333-8.533334 14.72l-357.76 204.8c-5.546667 2.986667-11.946667 2.986667-17.28 0zM205.866667 688.213333l306.346666 174.506667 306.133334-175.146667-0.426667-349.866666-306.346667-174.506667-305.92 175.146667 0.213334 349.866666z" />
  <path fill="currentColor" stroke="currentColor" stroke-width="18" stroke-linejoin="round" stroke-linecap="round" paint-order="stroke fill" d="M512 640.853333c-71.253333 0-129.066667-57.386667-129.066667-128s57.813333-128 129.066667-128 129.066667 57.386667 129.066667 128-57.813333 128-129.066667 128z m0-187.733333c-33.493333 0-60.8 26.88-60.8 59.733333s27.306667 59.733333 60.8 59.733334 60.8-26.88 60.8-59.733334-27.306667-59.733333-60.8-59.733333z" />
  <path fill="currentColor" stroke="currentColor" stroke-width="18" stroke-linejoin="round" stroke-linecap="round" paint-order="stroke fill" d="M411.946667 532.053333l34.56 59.093334-246.4 141.013333-34.56-59.093333zM454.186667 439.253333l-34.133334 59.306667L172.8 358.613333l34.346667-59.093333zM858.453333 668.373333l-34.133333 59.093334-247.04-139.946667 34.133333-59.093333zM478.9184 151.4176l68.906667-0.322133 1.322666 281.6-68.906666 0.322133zM478.9184 612.224l68.906667-0.324267 1.322666 281.6-68.906666 0.324267zM807.68 305.493333l34.56 59.093334L595.84 505.6l-34.56-59.093333z" />
</svg>
