<?xml version="1.0" standalone="no"?><!DOCTYPE svg PUBLIC "-//W3C//DTD SVG 1.1//EN" "http://www.w3.org/Graphics/SVG/1.1/DTD/svg11.dtd"><svg t="1783160853530" class="icon" viewBox="0 0 1024 1024" version="1.1" xmlns="http://www.w3.org/2000/svg" p-id="6338" xmlns:xlink="http://www.w3.org/1999/xlink" width="200" height="200"><path d="M927.27050913-6.45970103L96.72949087-6.45970103C39.73034507-6.45970103-6.45970103 40.10740668-6.45970103 96.72949087l0 830.47817565C-6.45970103 984.26965493 40.10740668 1030.45970103 96.72949087 1030.45970103l830.47817565 0c56.9991458 0 103.18919189-46.56710769 103.18919189-103.1891919L1030.39685694 96.72949087C1030.45970103 39.73034507 983.89259332-6.45970103 927.27050913-6.45970103zM935.69155253 936.19430083c0-0.43990567-847.88585338-0.50274831-847.88585336-0.5027483C88.24560484 935.69155253 88.30844747 87.80569917 88.30844747 87.80569917 88.30844747 88.24560484 936.19430083 88.30844747 936.19430083 88.30844747 935.75439516 88.30844747 935.69155253 936.19430083 935.69155253 936.19430083z" p-id="6339"></path><path d="M794.29345226 761.61477969l0.50274831 0.25137488L794.79620057 272.88010103c-1.69677721-27.39981014-20.54985724-41.97952441-56.49639603-43.6763016L435.07943344 229.20379943c-18.85308003 1.69677721-29.09658734 13.69990433-30.85620715 35.94653879 1.69677721 22.24663444 12.00312714 34.24976158 30.85620715 35.94653878l280.03108266 0c5.15317571 0 7.72976282 2.57658711 7.7297628 7.72976282l0 416.21316312 0.69127913 0.37706161-96.90483141 0c-9.86644571 0-25.89156372 12.82009443-27.14843524 33.36995167 1.25687152 22.24663444 14.89393324 34.24976158 27.14843524 35.94653878l145.73430869 0C785.30681645 793.16226745 792.59667504 782.10179284 794.29345226 761.61477969zM460.78246639 403.9090073c-17.15630283-1.69677721-26.51999876-13.69990433-28.27962006-35.9465388 1.69677721-20.54985724 11.12331723-31.67317446 28.27962006-33.36995166l210.65174811 0c20.54985724 1.69677721 31.67317446 12.82009443 33.36995167 33.36995166-1.69677721 22.24663444-12.00312714 34.24976158-30.85620718 35.9465388L460.78246639 403.9090073zM250.88484147 298.58313397C240.82986497 296.88635678 218.45754382 284.88322964 217.45204573 262.5737511 218.45754382 242.02389387 237.18493715 230.90057665 247.30275628 229.20379943l82.82786545 0c12.12881531 1.69677721 29.47364895 12.82009443 30.47914557 33.36995167C359.66711329 284.88322964 341.25393897 296.88635678 330.13062173 298.58313397L250.88484147 298.58313397zM350.30341737 723.53155803l0-301.6492806c1.69677721-37.70616007-12.82009443-55.6794302-43.6763016-53.98265301L244.97754258 367.89962442C226.12446254 369.65924572 215.88095671 381.66237286 214.12133541 403.9090073c1.69677721 24.00625573 12.00312714 36.82635015 30.85620717 38.52312736L270.68057552 442.43213466c5.15317571 0 7.72976282 2.57658711 7.72976282 7.72976282l0 304.41439851c-0.12568672 0.7541232-0.18853081 1.5710905-0.1885308 2.38805632 0.18853081 4.46189513 1.25687152 8.48388603 2.8908061 12.12881531 4.27336431 14.01412332 11.62606554 21.30398045 28.15393335 25.38881397 2.76511791 0.43990567 5.46739321-0.12568672 8.1696685-1.57109051l72.39582735 0c10.68341152-1.69677721 30.60483376-13.69990433 31.61033038-35.94653877-0.94265401-20.54985724-19.92142077-31.67317446-31.61033038-33.36995168 0 0-17.91042605 0-36.63781938 0L350.30341737 723.59440212zM494.21526067 691.66985277c-35.94653878 0-53.98265298-17.15630283-53.98265299-51.40606442L440.23260915 491.26161197c0-34.24976158 15.39668155-51.40606442 46.25289018-51.40606441l151.5787635 0c35.94653878 0 53.10284161 14.57971571 51.40606441 43.67630159l0 156.7319392c0 34.24976158-15.39668155 51.40606442-46.25289017 51.40606442L494.21526067 691.66985277zM512.18853081 617.13734252c1.69677721 3.45639851 4.27336431 5.97014151 7.72976281 7.7297628l89.92919177 0c5.15317571 0 7.72976282-2.57658711 7.72976282-7.7297628L617.57724821 516.9646449c0-5.15317571-2.57658711-7.72976282-7.72976282-7.72976281L519.85544953 509.23488209c-5.15317571 0-7.72976282 2.57658711-7.72976281 7.72976281L512.12568672 617.13734252z" p-id="6340"></path></svg>