<svg viewBox="0 0 1024 1024" xmlns="http://www.w3.org/2000/svg">
  <path d="M512 85.333333c102.869333 0 199.509333 36.693333 275.029333 100.437334l93.866667-94.037334a21.333333 21.333333 0 0 1 36.437333 15.061334V384a21.333333 21.333333 0 0 1-21.333333 21.333333h-276.693333a21.333333 21.333333 0 0 1-15.104-36.394666l122.325333-122.496a341.333333 341.333333 0 1 0 118.314667 341.632 42.666667 42.666667 0 1 1 83.2 18.901333A426.794667 426.794667 0 0 1 512 938.666667C276.352 938.666667 85.333333 747.648 85.333333 512S276.352 85.333333 512 85.333333z" fill="currentColor"/>
</svg>
